<?xml version="1.0" encoding="UTF-8" standalone="no"?>
<!-- Created with Inkscape (http://www.inkscape.org/) -->
<svg
   xmlns:dc="http://purl.org/dc/elements/1.1/"
   xmlns:cc="http://creativecommons.org/ns#"
   xmlns:rdf="http://www.w3.org/1999/02/22-rdf-syntax-ns#"
   xmlns:svg="http://www.w3.org/2000/svg"
   xmlns="http://www.w3.org/2000/svg"
   xmlns:sodipodi="http://sodipodi.sourceforge.net/DTD/sodipodi-0.dtd"
   xmlns:inkscape="http://www.inkscape.org/namespaces/inkscape"
   width="267"
   height="267"
   id="svg2"
   sodipodi:version="0.32"
   inkscape:version="0.46"
   version="1.0"
   sodipodi:docname="ClassicAButton.svg"
   inkscape:output_extension="org.inkscape.output.svg.inkscape">
  <defs
     id="defs4">
    <inkscape:perspective
       sodipodi:type="inkscape:persp3d"
       inkscape:vp_x="0 : 526.18109 : 1"
       inkscape:vp_y="0 : 1000 : 0"
       inkscape:vp_z="744.09448 : 526.18109 : 1"
       inkscape:persp3d-origin="372.04724 : 350.78739 : 1"
       id="perspective10" />
    <inkscape:perspective
       id="perspective2390"
       inkscape:persp3d-origin="372.04724 : 350.78739 : 1"
       inkscape:vp_z="744.09448 : 526.18109 : 1"
       inkscape:vp_y="0 : 1000 : 0"
       inkscape:vp_x="0 : 526.18109 : 1"
       sodipodi:type="inkscape:persp3d" />
  </defs>
  <sodipodi:namedview
     id="base"
     pagecolor="#ffffff"
     bordercolor="#666666"
     borderopacity="1.0"
     gridtolerance="10000"
     guidetolerance="10"
     objecttolerance="10"
     inkscape:pageopacity="0.0"
     inkscape:pageshadow="2"
     inkscape:zoom="1.4"
     inkscape:cx="94.469503"
     inkscape:cy="159.698"
     inkscape:document-units="px"
     inkscape:current-layer="layer1"
     showgrid="false"
     inkscape:window-width="723"
     inkscape:window-height="667"
     inkscape:window-x="22"
     inkscape:window-y="29" />
  <metadata
     id="metadata7">
    <rdf:RDF>
      <cc:Work
         rdf:about="">
        <dc:format>image/svg+xml</dc:format>
        <dc:type
           rdf:resource="http://purl.org/dc/dcmitype/StillImage" />
      </cc:Work>
    </rdf:RDF>
  </metadata>
  <g
     inkscape:label="Layer 1"
     inkscape:groupmode="layer"
     id="layer1">
    <path
       style="fill:#000000"
       d="M 118.26057,264.82687 C 40.723833,255.07119 -11.227171,183.04507 4.1582429,106.63265 C 9.1155859,82.011756 20.568525,60.552498 38.765793,41.788824 C 64.625837,15.123854 96.98536,1.4681242 134.08687,1.5632842 C 170.63009,1.6570242 202.84518,15.398504 228.39034,41.788824 C 246.51135,60.509372 257.82925,81.734904 263.23304,107.13265 C 266.31443,121.6152 266.31443,145.11744 263.23304,159.59999 C 257.54727,186.32304 246.36283,206.78362 226.6835,226.46295 C 206.99882,246.14763 186.10934,257.56328 160.05842,262.87212 C 148.46736,265.23423 128.80616,266.15372 118.26057,264.82687 z M 150.08687,251.39493 C 163.67824,249.30672 173.15686,246.43606 184.58687,240.94638 C 218.73341,224.54627 242.85477,193.64611 250.53467,156.46533 C 259.10738,114.96215 243.34065,70.212444 210.3705,42.469994 C 154.46192,-4.5738158 70.576591,8.982714 32.030514,71.291126 C 10.907047,105.4365 8.6630299,147.8284 26.044875,184.36632 C 48.456049,231.47625 99.65609,259.14323 150.08687,251.39493 z M 112.35657,190.81226 C 97.93635,187.96617 87.84494,178.89026 84.475097,165.73647 C 79.627708,146.81526 89.83131,130.00728 110.47736,122.904 C 119.6035,119.76415 127.44518,118.65 145.08687,117.9867 L 161.58687,117.36632 L 161.90326,112.93441 C 162.50798,104.46346 157.40313,96.227657 148.63978,91.536087 C 145.20354,89.696456 142.98923,89.371379 134.08687,89.399616 C 122.41871,89.436626 117.4925,90.984322 108.3472,97.486387 C 105.73254,99.345347 103.09783,100.86632 102.49229,100.86632 C 101.88675,100.86632 98.78985,98.138943 95.61027,94.805492 L 89.82923,88.744673 L 92.59584,85.856956 C 96.57834,81.700123 107.76046,76.123728 116.69635,73.838311 C 126.25387,71.39391 143.93937,71.155939 152.39357,73.35798 C 165.7921,76.847854 175.98578,85.007684 180.27695,95.678052 C 182.51947,101.2543 182.5708,102.22865 182.88339,145.15461 L 183.20226,188.9429 L 173.89457,188.65461 L 164.58687,188.36632 L 164.28407,181.86632 C 164.11752,178.29132 163.5675,174.95129 163.06179,174.44404 C 162.50131,173.88185 160.6135,175.24838 158.22668,177.94404 C 148.37358,189.07204 129.85768,194.26642 112.35657,190.81226 z M 143.59798,171.75571 C 149.98399,169.39261 155.69662,163.86855 158.99562,156.86632 C 161.14935,152.29498 161.58687,149.93112 161.58687,142.86632 L 161.58687,134.36632 L 151.08687,134.04939 C 126.80873,133.31659 109.26672,139.8586 105.96564,150.87662 C 104.29006,156.46919 105.62684,163.27278 109.2011,167.34364 C 115.4434,174.45323 130.9375,176.44065 143.59798,171.75571 z"
       id="path2827" />
  </g>
</svg>
